<?xml version="1.0" ?><svg enable-background="new 0 0 64 64" id="Layer_1" version="1.1" viewBox="0 0 64 64" xml:space="preserve" xmlns="http://www.w3.org/2000/svg" xmlns:xlink="http://www.w3.org/1999/xlink"><g><path d="M56.7949219,5H7.2050781C3.7836914,5,1,7.7836914,1,11.2050781v33.5898438C1,48.2167969,3.7836914,51,7.2050781,51H14   c1.1044922,0,2-0.8955078,2-2s-0.8955078-2-2-2H7.2050781C5.9892578,47,5,46.0107422,5,44.7949219V11.2050781   C5,9.9892578,5.9892578,9,7.2050781,9h49.5898438C58.0107422,9,59,9.9892578,59,11.2050781v33.5898438   C59,46.0107422,58.0107422,47,56.7949219,47H21c-1.1044922,0-2,0.8955078-2,2s0.8955078,2,2,2h35.7949219   C60.2163086,51,63,48.2167969,63,44.7949219V11.2050781C63,7.7836914,60.2163086,5,56.7949219,5z"/><path d="M43.4946289,26.6831055l-5.375,6.1430664L27.6000977,18.7998047   c-0.3618164-0.4824219-0.9223633-0.7758789-1.5249023-0.7983398c-0.6030273-0.0268555-1.1831055,0.2280273-1.5805664,0.6816406   L18.0922852,26H13c-1.1044922,0-2,0.8955078-2,2s0.8955078,2,2,2h6c0.5766602,0,1.1254883-0.2490234,1.5053711-0.6831055   l5.375-6.1430664l10.5195313,14.0263672c0.3618164,0.4824219,0.9223633,0.7753906,1.5249023,0.7988281   C37.949707,38,37.9750977,38,38,38c0.5756836,0,1.1245117-0.2480469,1.5053711-0.6826172L45.9077148,30H51   c1.1044922,0,2-0.8955078,2-2s-0.8955078-2-2-2h-6C44.4233398,26,43.8745117,26.2490234,43.4946289,26.6831055z"/><path d="M51,17c1.1044922,0,2-0.8955078,2-2s-0.8955078-2-2-2h-3c-1.1044922,0-2,0.8955078-2,2s0.8955078,2,2,2H51z"/><path d="M58,55H6c-1.1044922,0-2,0.8955078-2,2s0.8955078,2,2,2h52c1.1044922,0,2-0.8955078,2-2S59.1044922,55,58,55z"/></g></svg>