<?xml version="1.0" ?><svg id="Layer_1_1_" style="enable-background:new 0 0 64 64;" version="1.1" viewBox="0 0 64 64" xml:space="preserve" xmlns="http://www.w3.org/2000/svg" xmlns:xlink="http://www.w3.org/1999/xlink"><g><path d="M52.697,6l-2.654,1.769C46.742,3.649,41.678,1,36,1c-6.227,0-11.723,3.18-14.956,8H1v54h44V34.565   c5.371-3.118,9-8.919,9-15.565c0-3.53-1.036-6.816-2.799-9.599L53.303,8H63V6H52.697z M35,3.051v15.655l-8.463,13.166   C22.581,28.956,20,24.279,20,19C20,10.515,26.644,3.571,35,3.051z M36,37c1.024,0,2.022-0.106,3-0.271V39H7V15h11.464   C18.17,16.289,18,17.624,18,19C18,28.925,26.075,37,36,37z M43,61H3V11h16.899c-0.344,0.689-0.645,1.401-0.899,2.137V13H5v28h36   v-4.721c0.682-0.198,1.353-0.422,2-0.696V61z M36,35c-2.827,0-5.481-0.744-7.788-2.036l8.193-12.744l14.183,5.319   C48.082,31.107,42.492,35,36,35z M52,19c0,1.624-0.247,3.191-0.699,4.67L37,18.307V3.051c4.577,0.285,8.642,2.486,11.379,5.828   l-7.934,5.289l1.109,1.664l7.983-5.322C51.088,12.974,52,15.88,52,19z" style="fill:#3F3A34;"/><rect height="2" style="fill:#3F3A34;" width="2" x="61" y="10"/><rect height="2" style="fill:#3F3A34;" width="5" x="54" y="10"/><rect height="2" style="fill:#3F3A34;" width="36" x="5" y="43"/><rect height="2" style="fill:#3F3A34;" width="32" x="9" y="47"/><rect height="2" style="fill:#3F3A34;" width="2" x="5" y="47"/><rect height="2" style="fill:#3F3A34;" width="36" x="5" y="51"/><rect height="2" style="fill:#3F3A34;" width="2" x="39" y="55"/><rect height="2" style="fill:#3F3A34;" width="32" x="5" y="55"/><path d="M51,41h8v-8h-8V41z M53,35h4v4h-4V35z" style="fill:#3F3A34;"/><path d="M55,53c-2.757,0-5,2.243-5,5s2.243,5,5,5s5-2.243,5-5S57.757,53,55,53z M55,61c-1.654,0-3-1.346-3-3   s1.346-3,3-3s3,1.346,3,3S56.654,61,55,61z" style="fill:#3F3A34;"/><path d="M59.766,51L55,43.056L50.234,51H59.766z M56.234,49h-2.468L55,46.944L56.234,49z" style="fill:#3F3A34;"/></g></svg>